<svg xmlns="http://www.w3.org/2000/svg" xmlns:xlink="http://www.w3.org/1999/xlink" width="500" zoomAndPan="magnify" viewBox="0 0 375 374.999991" height="500" preserveAspectRatio="xMidYMid meet" version="1.0"><defs><g/><clipPath id="4636ed59d9"><path d="M 84.480469 136.15625 L 123 136.15625 L 123 205.476562 L 84.480469 205.476562 Z M 84.480469 136.15625 " clip-rule="nonzero"/></clipPath><clipPath id="48462779d2"><path d="M 104.097656 136.199219 C 102.691406 136.15625 100.992188 137.136719 100.996094 138.40625 C 101 139.324219 101.894531 139.984375 102.097656 140.128906 C 101.953125 140.332031 101.726562 140.660156 101.445312 141.058594 C 99.914062 143.210938 98.746094 144.71875 98.515625 145.019531 C 98.175781 145.46875 93.242188 151.964844 95.414062 156.664062 C 95.722656 157.328125 96.355469 158.355469 97.792969 159.316406 C 96.78125 159.382812 96.152344 160.28125 96.308594 161.007812 C 96.433594 161.5625 97.03125 162.027344 97.757812 162.039062 C 98.179688 163.914062 97.914062 164.605469 97.550781 164.863281 C 97.164062 165.140625 96.660156 164.9375 96.277344 165.3125 C 95.910156 165.671875 95.925781 166.289062 96 166.761719 C 95.746094 166.757812 95.101562 166.996094 94.726562 167.277344 C 93.140625 168.449219 94.382812 169.414062 95.484375 169.6875 C 96.140625 169.851562 96.691406 169.96875 96.894531 169.929688 C 96.886719 170.195312 96.8125 170.714844 97.171875 170.964844 C 97.828125 171.410156 99.332031 170.855469 99.410156 173.476562 C 99.480469 175.753906 98.929688 178.507812 97.859375 182.332031 C 97.519531 183.550781 95.296875 185.363281 95.414062 186.984375 C 95.441406 187.355469 95.140625 187.671875 94.65625 188.085938 C 94.300781 188.394531 94.007812 188.578125 93.824219 188.894531 C 93.761719 189.007812 93.664062 189.222656 93.621094 189.878906 C 93.597656 190.273438 93.59375 190.84375 93.691406 191.53125 C 93.195312 191.882812 92.109375 192.960938 91.210938 193.53125 C 88.386719 195.320312 87.269531 197.035156 87.628906 199.320312 C 87.675781 199.632812 87.800781 200.078125 88.144531 200.59375 C 87.957031 200.574219 86.933594 200.222656 85.972656 201.246094 C 84.976562 202.316406 84.550781 204.074219 85.355469 205.382812 L 122.324219 205.417969 C 123.058594 204.289062 123.054688 202.859375 122.324219 201.832031 C 121.449219 200.609375 119.972656 200.5625 119.808594 200.558594 C 120.355469 199.539062 120.390625 198.746094 120.359375 198.285156 C 120.21875 196.222656 118.296875 194.726562 115.878906 192.839844 C 115.160156 192.277344 114.546875 191.859375 114.15625 191.601562 C 114.222656 191.28125 114.292969 190.832031 114.296875 190.292969 C 114.296875 189.898438 114.300781 189.261719 114.089844 188.707031 C 113.773438 187.875 112.5625 187.808594 112.574219 187.121094 C 112.597656 185.609375 111.441406 184.898438 110.78125 183.675781 C 108.4375 179.335938 108.449219 174.25 108.507812 172.859375 C 108.574219 171.203125 109.9375 171.445312 110.503906 170.996094 C 110.832031 170.738281 111.015625 170.199219 111.089844 169.929688 C 111.539062 169.824219 112.089844 169.757812 112.433594 169.6875 C 113.828125 169.410156 114.570312 168.035156 112.984375 167.207031 C 112.445312 166.925781 112.019531 166.738281 111.882812 166.726562 C 111.984375 166.320312 112.058594 165.878906 111.746094 165.484375 C 111.382812 165.03125 110.800781 165.195312 110.367188 164.863281 C 109.988281 164.574219 109.675781 163.871094 110.058594 162.003906 C 110.714844 161.992188 111.472656 161.628906 111.609375 161.074219 C 111.777344 160.382812 111.070312 159.511719 110.230469 159.351562 C 110.636719 159.105469 111.316406 158.628906 111.882812 157.835938 C 114.1875 154.605469 112.023438 149.71875 111.574219 148.707031 C 111.183594 147.828125 110.550781 146.648438 109.507812 145.398438 C 107.789062 148.210938 105.039062 152.703125 104.855469 152.945312 L 104.785156 153.011719 C 104.621094 153.140625 104.320312 153.160156 104.097656 153.011719 C 103.882812 152.871094 103.765625 152.597656 103.820312 152.394531 C 103.84375 152.316406 103.882812 152.265625 103.890625 152.253906 C 104.054688 152.042969 105.933594 148.910156 108.78125 144.125 L 105.75 140.128906 C 105.941406 140.019531 106.960938 139.429688 107.023438 138.507812 C 107.113281 137.289062 105.484375 136.242188 104.097656 136.199219 " clip-rule="nonzero"/></clipPath></defs><g fill="#000000" fill-opacity="1"><g transform="translate(30.631702, 199.054753)"><g><path d="M 8.355469 0 L 33.015625 0 C 43.730469 0 49.996094 -3.976562 49.996094 -11.65625 L 49.996094 -12.9375 C 49.996094 -18.730469 46.15625 -20.28125 43.730469 -21.089844 C 46.089844 -21.832031 48.984375 -23.785156 48.984375 -29.445312 L 48.984375 -30.386719 C 48.984375 -37.195312 43.394531 -40.429688 35.039062 -40.429688 L 8.355469 -40.429688 Z M 13.878906 -23.988281 L 13.878906 -35.039062 L 35.039062 -35.039062 C 41.238281 -35.039062 43.324219 -33.21875 43.324219 -30.386719 L 43.324219 -29.445312 C 43.324219 -25.335938 41.035156 -23.988281 35.039062 -23.988281 Z M 13.878906 -5.390625 L 13.878906 -18.261719 L 33.015625 -18.261719 C 40.898438 -18.261719 44.335938 -17.316406 44.335938 -12.9375 L 44.335938 -11.65625 C 44.335938 -8.421875 41.371094 -5.390625 33.015625 -5.390625 Z M 13.878906 -5.390625 "/></g></g></g><g fill="#000000" fill-opacity="1"><g transform="translate(80.073705, 199.054753)"><g/></g></g><g fill="#000000" fill-opacity="1"><g transform="translate(100.822874, 199.054753)"><g/></g></g><g fill="#000000" fill-opacity="1"><g transform="translate(121.55102, 199.054753)"><g><path d="M 47.234375 -27.761719 L 52.757812 -27.761719 C 52.757812 -37.058594 44.269531 -41.035156 29.78125 -41.035156 C 12.601562 -41.035156 5.457031 -37.394531 5.457031 -30.726562 L 5.457031 -29.714844 C 5.457031 -21.425781 12.128906 -19.609375 28.300781 -17.921875 C 45.210938 -16.304688 46.695312 -14.015625 46.695312 -11.65625 L 46.695312 -10.714844 C 46.695312 -5.929688 37.867188 -4.714844 28.367188 -4.714844 C 16.304688 -4.714844 10.914062 -7.679688 10.914062 -13.207031 L 5.390625 -13.207031 C 5.390625 -4.515625 12.53125 0.671875 28.367188 0.671875 C 45.28125 0.671875 52.355469 -2.964844 52.355469 -10.714844 L 52.355469 -11.65625 C 52.355469 -20.078125 44.671875 -21.765625 28.703125 -23.3125 C 12.601562 -24.863281 11.117188 -27.15625 11.117188 -29.714844 L 11.117188 -30.726562 C 11.117188 -34.230469 18.664062 -35.644531 29.78125 -35.644531 C 40.496094 -35.644531 47.234375 -33.21875 47.234375 -27.761719 Z M 47.234375 -27.761719 "/></g></g></g><g fill="#000000" fill-opacity="1"><g transform="translate(173.494005, 199.054753)"><g><path d="M 50.535156 -40.429688 L 50.535156 -22.4375 L 13.878906 -22.4375 L 13.878906 -40.429688 L 8.355469 -40.429688 L 8.355469 0 L 13.878906 0 L 13.878906 -17.722656 L 50.535156 -17.722656 L 50.535156 0 L 56.058594 0 L 56.058594 -40.429688 Z M 50.535156 -40.429688 "/></g></g></g><g fill="#000000" fill-opacity="1"><g transform="translate(231.702715, 199.054753)"><g><path d="M 32.074219 0.671875 C 51.882812 0.671875 58.753906 -8.421875 58.753906 -19 L 58.753906 -21.964844 C 58.753906 -32.882812 51.480469 -41.238281 32.074219 -41.238281 C 12.464844 -41.238281 5.390625 -32.542969 5.390625 -21.695312 L 5.390625 -18.730469 C 5.390625 -8.019531 12.464844 0.671875 32.074219 0.671875 Z M 32.074219 -4.714844 C 17.25 -4.714844 11.050781 -10.242188 11.050781 -18.730469 L 11.050781 -21.695312 C 11.050781 -30.320312 17.25 -35.847656 32.074219 -35.847656 C 46.628906 -35.847656 53.097656 -29.984375 53.097656 -21.292969 L 53.097656 -18.328125 C 53.097656 -10.039062 47.167969 -4.714844 32.074219 -4.714844 Z M 32.074219 -4.714844 "/></g></g></g><g fill="#000000" fill-opacity="1"><g transform="translate(289.641935, 199.054753)"><g><path d="M 34.699219 -40.429688 L 8.355469 -40.429688 L 8.355469 0 L 13.878906 0 L 13.878906 -13.746094 L 34.699219 -13.746094 C 46.089844 -13.746094 50.671875 -17.652344 50.671875 -26.683594 L 50.671875 -28.636719 C 50.671875 -35.578125 47.4375 -40.429688 34.699219 -40.429688 Z M 45.011719 -26.683594 C 45.011719 -21.15625 42.382812 -19.136719 34.027344 -19.136719 L 13.878906 -19.136719 L 13.878906 -35.039062 L 34.027344 -35.039062 C 42.046875 -35.039062 45.011719 -33.421875 45.011719 -28.636719 Z M 45.011719 -26.683594 "/></g></g></g><g clip-path="url(#4636ed59d9)"><g clip-path="url(#48462779d2)"><path fill="#000000" d="M 84.550781 136.15625 L 123.070312 136.15625 L 123.070312 205.410156 L 84.550781 205.410156 Z M 84.550781 136.15625 " fill-opacity="1" fill-rule="nonzero"/></g></g><g fill="#000000" fill-opacity="1"><g transform="translate(38.141843, 227.148568)"><g><path d="M 12.898438 -6.90625 L 12.898438 -7.167969 C 12.898438 -8.859375 11.824219 -9.773438 9.660156 -9.773438 L 2.019531 -9.773438 L 2.019531 0 L 3.4375 0 L 3.4375 -3.941406 L 9.25 -3.941406 C 10.996094 -3.941406 11.289062 -3.144531 11.289062 -2.214844 L 11.289062 -0.910156 C 11.289062 -0.617188 11.304688 -0.292969 11.351562 0 L 12.867188 0 C 12.820312 -0.292969 12.785156 -0.617188 12.785156 -0.976562 L 12.785156 -2.296875 C 12.785156 -3.324219 12.363281 -4.121094 11.402344 -4.578125 C 12.347656 -4.886719 12.898438 -5.570312 12.898438 -6.90625 Z M 11.53125 -6.90625 C 11.53125 -5.914062 10.996094 -5.324219 9.660156 -5.324219 L 3.4375 -5.324219 L 3.4375 -8.46875 L 9.660156 -8.46875 C 11.109375 -8.46875 11.53125 -7.914062 11.53125 -7.167969 Z M 11.53125 -6.90625 "/></g></g></g><g fill="#000000" fill-opacity="1"><g transform="translate(54.15271, 227.148568)"><g><path d="M 11.988281 -8.582031 L 11.988281 -9.773438 L 2.019531 -9.773438 L 2.019531 0 L 11.988281 0 L 11.988281 -1.1875 L 3.355469 -1.1875 L 3.355469 -4.167969 L 11.140625 -4.167969 L 11.140625 -5.359375 L 3.355469 -5.359375 L 3.355469 -8.582031 Z M 11.988281 -8.582031 "/></g></g></g><g fill="#000000" fill-opacity="1"><g transform="translate(68.893134, 227.148568)"><g><path d="M 10.816406 0 L 12.347656 0 L 6.988281 -9.757812 L 6.988281 -9.773438 L 5.441406 -9.773438 L 5.457031 -9.757812 L 0.0820312 0 L 1.613281 0 L 2.621094 -1.839844 L 9.804688 -1.839844 Z M 3.339844 -3.144531 L 6.222656 -8.371094 L 9.089844 -3.144531 Z M 3.339844 -3.144531 "/></g></g></g><g fill="#000000" fill-opacity="1"><g transform="translate(83.079774, 227.148568)"><g><path d="M 3.339844 -9.773438 L 2.003906 -9.773438 L 2.003906 0 L 11.484375 0 L 11.484375 -1.238281 L 3.339844 -1.238281 Z M 3.339844 -9.773438 "/></g></g></g><g fill="#000000" fill-opacity="1"><g transform="translate(96.973226, 227.148568)"><g/></g></g><g fill="#000000" fill-opacity="1"><g transform="translate(105.247402, 227.148568)"><g><path d="M 11.988281 -8.582031 L 11.988281 -9.773438 L 2.019531 -9.773438 L 2.019531 0 L 11.988281 0 L 11.988281 -1.1875 L 3.355469 -1.1875 L 3.355469 -4.167969 L 11.140625 -4.167969 L 11.140625 -5.359375 L 3.355469 -5.359375 L 3.355469 -8.582031 Z M 11.988281 -8.582031 "/></g></g></g><g fill="#000000" fill-opacity="1"><g transform="translate(119.987829, 227.148568)"><g><path d="M 11.417969 -6.710938 L 12.753906 -6.710938 C 12.753906 -8.957031 10.699219 -9.917969 7.199219 -9.917969 C 3.046875 -9.917969 1.320312 -9.039062 1.320312 -7.425781 L 1.320312 -7.183594 C 1.320312 -5.179688 2.933594 -4.738281 6.839844 -4.332031 C 10.929688 -3.941406 11.289062 -3.386719 11.289062 -2.816406 L 11.289062 -2.589844 C 11.289062 -1.433594 9.152344 -1.140625 6.855469 -1.140625 C 3.941406 -1.140625 2.636719 -1.855469 2.636719 -3.191406 L 1.304688 -3.191406 C 1.304688 -1.089844 3.03125 0.164062 6.855469 0.164062 C 10.945312 0.164062 12.65625 -0.714844 12.65625 -2.589844 L 12.65625 -2.816406 C 12.65625 -4.855469 10.796875 -5.261719 6.9375 -5.636719 C 3.046875 -6.011719 2.6875 -6.5625 2.6875 -7.183594 L 2.6875 -7.425781 C 2.6875 -8.273438 4.511719 -8.617188 7.199219 -8.617188 C 9.789062 -8.617188 11.417969 -8.03125 11.417969 -6.710938 Z M 11.417969 -6.710938 "/></g></g></g><g fill="#000000" fill-opacity="1"><g transform="translate(135.803246, 227.148568)"><g><path d="M 10.796875 -9.773438 L -0.0507812 -9.773438 L -0.0507812 -8.503906 L 4.707031 -8.503906 L 4.707031 0 L 6.042969 0 L 6.042969 -8.503906 L 10.796875 -8.503906 Z M 10.796875 -9.773438 "/></g></g></g><g fill="#000000" fill-opacity="1"><g transform="translate(148.295942, 227.148568)"><g><path d="M 10.816406 0 L 12.347656 0 L 6.988281 -9.757812 L 6.988281 -9.773438 L 5.441406 -9.773438 L 5.457031 -9.757812 L 0.0820312 0 L 1.613281 0 L 2.621094 -1.839844 L 9.804688 -1.839844 Z M 3.339844 -3.144531 L 6.222656 -8.371094 L 9.089844 -3.144531 Z M 3.339844 -3.144531 "/></g></g></g><g fill="#000000" fill-opacity="1"><g transform="translate(162.482577, 227.148568)"><g><path d="M 10.796875 -9.773438 L -0.0507812 -9.773438 L -0.0507812 -8.503906 L 4.707031 -8.503906 L 4.707031 0 L 6.042969 0 L 6.042969 -8.503906 L 10.796875 -8.503906 Z M 10.796875 -9.773438 "/></g></g></g><g fill="#000000" fill-opacity="1"><g transform="translate(174.975273, 227.148568)"><g><path d="M 11.988281 -8.582031 L 11.988281 -9.773438 L 2.019531 -9.773438 L 2.019531 0 L 11.988281 0 L 11.988281 -1.1875 L 3.355469 -1.1875 L 3.355469 -4.167969 L 11.140625 -4.167969 L 11.140625 -5.359375 L 3.355469 -5.359375 L 3.355469 -8.582031 Z M 11.988281 -8.582031 "/></g></g></g><g fill="#000000" fill-opacity="1"><g transform="translate(189.715695, 227.148568)"><g/></g></g><g fill="#000000" fill-opacity="1"><g transform="translate(197.989866, 227.148568)"><g><path d="M 11.417969 -6.710938 L 12.753906 -6.710938 C 12.753906 -8.957031 10.699219 -9.917969 7.199219 -9.917969 C 3.046875 -9.917969 1.320312 -9.039062 1.320312 -7.425781 L 1.320312 -7.183594 C 1.320312 -5.179688 2.933594 -4.738281 6.839844 -4.332031 C 10.929688 -3.941406 11.289062 -3.386719 11.289062 -2.816406 L 11.289062 -2.589844 C 11.289062 -1.433594 9.152344 -1.140625 6.855469 -1.140625 C 3.941406 -1.140625 2.636719 -1.855469 2.636719 -3.191406 L 1.304688 -3.191406 C 1.304688 -1.089844 3.03125 0.164062 6.855469 0.164062 C 10.945312 0.164062 12.65625 -0.714844 12.65625 -2.589844 L 12.65625 -2.816406 C 12.65625 -4.855469 10.796875 -5.261719 6.9375 -5.636719 C 3.046875 -6.011719 2.6875 -6.5625 2.6875 -7.183594 L 2.6875 -7.425781 C 2.6875 -8.273438 4.511719 -8.617188 7.199219 -8.617188 C 9.789062 -8.617188 11.417969 -8.03125 11.417969 -6.710938 Z M 11.417969 -6.710938 "/></g></g></g><g fill="#000000" fill-opacity="1"><g transform="translate(213.805293, 227.148568)"><g><path d="M 10.796875 -9.773438 L -0.0507812 -9.773438 L -0.0507812 -8.503906 L 4.707031 -8.503906 L 4.707031 0 L 6.042969 0 L 6.042969 -8.503906 L 10.796875 -8.503906 Z M 10.796875 -9.773438 "/></g></g></g><g fill="#000000" fill-opacity="1"><g transform="translate(226.298, 227.148568)"><g><path d="M 12.898438 -6.90625 L 12.898438 -7.167969 C 12.898438 -8.859375 11.824219 -9.773438 9.660156 -9.773438 L 2.019531 -9.773438 L 2.019531 0 L 3.4375 0 L 3.4375 -3.941406 L 9.25 -3.941406 C 10.996094 -3.941406 11.289062 -3.144531 11.289062 -2.214844 L 11.289062 -0.910156 C 11.289062 -0.617188 11.304688 -0.292969 11.351562 0 L 12.867188 0 C 12.820312 -0.292969 12.785156 -0.617188 12.785156 -0.976562 L 12.785156 -2.296875 C 12.785156 -3.324219 12.363281 -4.121094 11.402344 -4.578125 C 12.347656 -4.886719 12.898438 -5.570312 12.898438 -6.90625 Z M 11.53125 -6.90625 C 11.53125 -5.914062 10.996094 -5.324219 9.660156 -5.324219 L 3.4375 -5.324219 L 3.4375 -8.46875 L 9.660156 -8.46875 C 11.109375 -8.46875 11.53125 -7.914062 11.53125 -7.167969 Z M 11.53125 -6.90625 "/></g></g></g><g fill="#000000" fill-opacity="1"><g transform="translate(242.308875, 227.148568)"><g><path d="M 10.816406 0 L 12.347656 0 L 6.988281 -9.757812 L 6.988281 -9.773438 L 5.441406 -9.773438 L 5.457031 -9.757812 L 0.0820312 0 L 1.613281 0 L 2.621094 -1.839844 L 9.804688 -1.839844 Z M 3.339844 -3.144531 L 6.222656 -8.371094 L 9.089844 -3.144531 Z M 3.339844 -3.144531 "/></g></g></g><g fill="#000000" fill-opacity="1"><g transform="translate(256.49552, 227.148568)"><g><path d="M 10.796875 -9.773438 L -0.0507812 -9.773438 L -0.0507812 -8.503906 L 4.707031 -8.503906 L 4.707031 0 L 6.042969 0 L 6.042969 -8.503906 L 10.796875 -8.503906 Z M 10.796875 -9.773438 "/></g></g></g><g fill="#000000" fill-opacity="1"><g transform="translate(268.988227, 227.148568)"><g><path d="M 11.988281 -8.582031 L 11.988281 -9.773438 L 2.019531 -9.773438 L 2.019531 0 L 11.988281 0 L 11.988281 -1.1875 L 3.355469 -1.1875 L 3.355469 -4.167969 L 11.140625 -4.167969 L 11.140625 -5.359375 L 3.355469 -5.359375 L 3.355469 -8.582031 Z M 11.988281 -8.582031 "/></g></g></g><g fill="#000000" fill-opacity="1"><g transform="translate(283.728659, 227.148568)"><g><path d="M 8.242188 -5.164062 L 8.242188 -3.972656 L 12.621094 -3.972656 C 12.199219 -1.988281 10.570312 -1.140625 7.558594 -1.140625 C 3.957031 -1.140625 2.671875 -2.476562 2.671875 -4.660156 L 2.671875 -5.148438 C 2.671875 -7.328125 4.167969 -8.664062 7.753906 -8.664062 C 11.058594 -8.664062 12.230469 -7.460938 12.410156 -6.382812 L 13.859375 -6.382812 C 13.730469 -8.09375 12.183594 -9.96875 7.753906 -9.96875 C 3.011719 -9.96875 1.304688 -7.867188 1.304688 -5.148438 L 1.304688 -4.660156 C 1.304688 -1.9375 2.816406 0.164062 7.558594 0.164062 C 10.359375 0.164062 11.972656 -0.503906 12.769531 -1.773438 L 12.769531 -1.726562 L 12.980469 0 L 14.054688 0 L 14.054688 -5.164062 Z M 8.242188 -5.164062 "/></g></g></g><g fill="#000000" fill-opacity="1"><g transform="translate(300.944821, 227.148568)"><g><path d="M 2.019531 0 L 3.355469 0 L 3.355469 -9.773438 L 2.019531 -9.773438 Z M 2.019531 0 "/></g></g></g><g fill="#000000" fill-opacity="1"><g transform="translate(308.07885, 227.148568)"><g><path d="M 11.988281 -8.582031 L 11.988281 -9.773438 L 2.019531 -9.773438 L 2.019531 0 L 11.988281 0 L 11.988281 -1.1875 L 3.355469 -1.1875 L 3.355469 -4.167969 L 11.140625 -4.167969 L 11.140625 -5.359375 L 3.355469 -5.359375 L 3.355469 -8.582031 Z M 11.988281 -8.582031 "/></g></g></g><g fill="#000000" fill-opacity="1"><g transform="translate(322.819282, 227.148568)"><g><path d="M 11.417969 -6.710938 L 12.753906 -6.710938 C 12.753906 -8.957031 10.699219 -9.917969 7.199219 -9.917969 C 3.046875 -9.917969 1.320312 -9.039062 1.320312 -7.425781 L 1.320312 -7.183594 C 1.320312 -5.179688 2.933594 -4.738281 6.839844 -4.332031 C 10.929688 -3.941406 11.289062 -3.386719 11.289062 -2.816406 L 11.289062 -2.589844 C 11.289062 -1.433594 9.152344 -1.140625 6.855469 -1.140625 C 3.941406 -1.140625 2.636719 -1.855469 2.636719 -3.191406 L 1.304688 -3.191406 C 1.304688 -1.089844 3.03125 0.164062 6.855469 0.164062 C 10.945312 0.164062 12.65625 -0.714844 12.65625 -2.589844 L 12.65625 -2.816406 C 12.65625 -4.855469 10.796875 -5.261719 6.9375 -5.636719 C 3.046875 -6.011719 2.6875 -6.5625 2.6875 -7.183594 L 2.6875 -7.425781 C 2.6875 -8.273438 4.511719 -8.617188 7.199219 -8.617188 C 9.789062 -8.617188 11.417969 -8.03125 11.417969 -6.710938 Z M 11.417969 -6.710938 "/></g></g></g><g fill="#000000" fill-opacity="1"><g transform="translate(60.749292, 242.734441)"><g><path d="M 8.394531 -6.714844 L 8.394531 -3.558594 L 1.96875 -3.558594 L 1.96875 -6.714844 L 1.386719 -6.714844 L 1.386719 0 L 1.96875 0 L 1.96875 -3.042969 L 8.394531 -3.042969 L 8.394531 0 L 8.976562 0 L 8.976562 -6.714844 Z M 8.394531 -6.714844 "/></g></g></g><g fill="#000000" fill-opacity="1"><g transform="translate(71.114753, 242.734441)"><g><path d="M 7.902344 -6.203125 L 7.902344 -6.714844 L 1.386719 -6.714844 L 1.386719 0 L 7.902344 0 L 7.902344 -0.515625 L 1.96875 -0.515625 L 1.96875 -3.011719 L 7.488281 -3.011719 L 7.488281 -3.527344 L 1.96875 -3.527344 L 1.96875 -6.203125 Z M 7.902344 -6.203125 "/></g></g></g><g fill="#000000" fill-opacity="1"><g transform="translate(79.700408, 242.734441)"><g><path d="M 1.957031 -6.714844 L 1.375 -6.714844 L 1.375 0 L 7.554688 0 L 7.554688 -0.515625 L 1.957031 -0.515625 Z M 1.957031 -6.714844 "/></g></g></g><g fill="#000000" fill-opacity="1"><g transform="translate(87.703981, 242.734441)"><g><path d="M 5.148438 -6.714844 L 1.386719 -6.714844 L 1.386719 0 L 1.96875 0 L 1.96875 -2.429688 L 5.148438 -2.429688 C 7.265625 -2.429688 7.914062 -3.078125 7.914062 -4.488281 L 7.914062 -4.8125 C 7.914062 -6.042969 7.253906 -6.714844 5.148438 -6.714844 Z M 7.308594 -4.488281 C 7.308594 -3.378906 6.703125 -2.988281 5.148438 -2.988281 L 1.96875 -2.988281 L 1.96875 -6.15625 L 5.148438 -6.15625 C 6.648438 -6.15625 7.308594 -5.789062 7.308594 -4.8125 Z M 7.308594 -4.488281 "/></g></g></g><g fill="#000000" fill-opacity="1"><g transform="translate(96.289636, 242.734441)"><g><path d="M 1.386719 0 L 1.96875 0 L 1.96875 -6.714844 L 1.386719 -6.714844 Z M 1.386719 0 "/></g></g></g><g fill="#000000" fill-opacity="1"><g transform="translate(99.647774, 242.734441)"><g><path d="M 8.09375 -6.714844 L 8.09375 -0.605469 L 2.171875 -6.714844 L 1.386719 -6.714844 L 1.386719 0 L 1.96875 0 L 1.96875 -6.113281 L 7.890625 0 L 8.675781 0 L 8.675781 -6.714844 Z M 8.09375 -6.714844 "/></g></g></g><g fill="#000000" fill-opacity="1"><g transform="translate(109.711, 242.734441)"><g><path d="M 5.539062 -3.425781 L 5.539062 -2.910156 L 8.785156 -2.910156 C 8.628906 -1.242188 7.421875 -0.449219 5.105469 -0.449219 C 2.585938 -0.449219 1.5 -1.367188 1.5 -3.113281 L 1.5 -3.605469 C 1.5 -5.351562 2.640625 -6.269531 5.160156 -6.269531 C 7.410156 -6.269531 8.507812 -5.539062 8.675781 -4.398438 L 9.300781 -4.398438 C 9.144531 -5.84375 7.847656 -6.828125 5.160156 -6.828125 C 2.207031 -6.828125 0.894531 -5.621094 0.894531 -3.605469 L 0.894531 -3.113281 C 0.894531 -1.097656 2.148438 0.113281 5.105469 0.113281 C 7.050781 0.113281 8.226562 -0.425781 8.785156 -1.421875 L 8.898438 0 L 9.371094 0 L 9.371094 -3.425781 Z M 5.539062 -3.425781 "/></g></g></g><g fill="#000000" fill-opacity="1"><g transform="translate(120.042885, 242.734441)"><g/></g></g><g fill="#000000" fill-opacity="1"><g transform="translate(124.520407, 242.734441)"><g><path d="M 7.34375 -6.714844 L 3.984375 -3.011719 L 0.636719 -6.714844 L -0.15625 -6.714844 L 3.695312 -2.472656 L 3.695312 0 L 4.277344 0 L 4.277344 -2.460938 L 8.136719 -6.714844 Z M 7.34375 -6.714844 "/></g></g></g><g fill="#000000" fill-opacity="1"><g transform="translate(132.512778, 242.734441)"><g><path d="M 5.160156 0.113281 C 8.117188 0.113281 9.425781 -1.140625 9.425781 -3.15625 L 9.425781 -3.648438 C 9.425781 -5.664062 8.117188 -6.828125 5.160156 -6.828125 C 2.207031 -6.828125 0.894531 -5.621094 0.894531 -3.605469 L 0.894531 -3.113281 C 0.894531 -1.097656 2.207031 0.113281 5.160156 0.113281 Z M 5.160156 -0.449219 C 2.640625 -0.449219 1.5 -1.367188 1.5 -3.113281 L 1.5 -3.605469 C 1.5 -5.351562 2.640625 -6.269531 5.160156 -6.269531 C 7.679688 -6.269531 8.820312 -5.351562 8.820312 -3.605469 L 8.820312 -3.113281 C 8.820312 -1.367188 7.679688 -0.449219 5.160156 -0.449219 Z M 5.160156 -0.449219 "/></g></g></g><g fill="#000000" fill-opacity="1"><g transform="translate(142.833461, 242.734441)"><g><path d="M 5.117188 0.113281 C 8.070312 0.113281 9.269531 -1.140625 9.269531 -3.15625 L 9.269531 -6.714844 L 8.640625 -6.714844 L 8.640625 -3.113281 C 8.640625 -1.367188 7.523438 -0.46875 5.117188 -0.46875 C 2.707031 -0.46875 1.589844 -1.367188 1.589844 -3.113281 L 1.589844 -6.714844 L 0.960938 -6.714844 L 0.960938 -3.113281 C 0.960938 -1.097656 2.160156 0.113281 5.117188 0.113281 Z M 5.117188 0.113281 "/></g></g></g><g fill="#000000" fill-opacity="1"><g transform="translate(153.075788, 242.734441)"><g/></g></g><g fill="#000000" fill-opacity="1"><g transform="translate(157.55331, 242.734441)"><g><path d="M 10.890625 -6.714844 L 10.140625 -6.714844 L 6.144531 -0.527344 L 2.136719 -6.714844 L 1.386719 -6.714844 L 1.386719 0 L 1.96875 0 L 1.96875 -5.933594 L 5.808594 -0.0117188 L 5.796875 0 L 6.480469 0 L 6.480469 -0.0117188 L 10.308594 -5.933594 L 10.308594 0 L 10.890625 0 Z M 10.890625 -6.714844 "/></g></g></g><g fill="#000000" fill-opacity="1"><g transform="translate(169.832915, 242.734441)"><g><path d="M 7.464844 0 L 8.125 0 L 4.433594 -6.714844 L 3.75 -6.714844 L 0.0546875 0 L 0.714844 0 L 1.445312 -1.320312 L 6.738281 -1.320312 Z M 1.746094 -1.878906 L 4.097656 -6.132812 L 6.4375 -1.878906 Z M 1.746094 -1.878906 "/></g></g></g><g fill="#000000" fill-opacity="1"><g transform="translate(178.015589, 242.734441)"><g><path d="M 8.472656 -6.714844 L 7.65625 -6.714844 L 4.097656 -3.660156 L 1.96875 -3.660156 L 1.96875 -6.714844 L 1.386719 -6.714844 L 1.386719 0 L 1.96875 0 L 1.96875 -3.101562 L 3.996094 -3.101562 L 7.613281 0 L 8.472656 0 L 4.601562 -3.359375 Z M 8.472656 -6.714844 "/></g></g></g><g fill="#000000" fill-opacity="1"><g transform="translate(186.713176, 242.734441)"><g><path d="M 7.902344 -6.203125 L 7.902344 -6.714844 L 1.386719 -6.714844 L 1.386719 0 L 7.902344 0 L 7.902344 -0.515625 L 1.96875 -0.515625 L 1.96875 -3.011719 L 7.488281 -3.011719 L 7.488281 -3.527344 L 1.96875 -3.527344 L 1.96875 -6.203125 Z M 7.902344 -6.203125 "/></g></g></g><g fill="#000000" fill-opacity="1"><g transform="translate(195.298831, 242.734441)"><g/></g></g><g fill="#000000" fill-opacity="1"><g transform="translate(199.776353, 242.734441)"><g><path d="M 7.085938 -6.714844 L -0.0351562 -6.714844 L -0.0351562 -6.179688 L 3.234375 -6.179688 L 3.234375 0 L 3.816406 0 L 3.816406 -6.179688 L 7.085938 -6.179688 Z M 7.085938 -6.714844 "/></g></g></g><g fill="#000000" fill-opacity="1"><g transform="translate(206.817253, 242.734441)"><g><path d="M 8.394531 -6.714844 L 8.394531 -3.558594 L 1.96875 -3.558594 L 1.96875 -6.714844 L 1.386719 -6.714844 L 1.386719 0 L 1.96875 0 L 1.96875 -3.042969 L 8.394531 -3.042969 L 8.394531 0 L 8.976562 0 L 8.976562 -6.714844 Z M 8.394531 -6.714844 "/></g></g></g><g fill="#000000" fill-opacity="1"><g transform="translate(217.182715, 242.734441)"><g><path d="M 7.902344 -6.203125 L 7.902344 -6.714844 L 1.386719 -6.714844 L 1.386719 0 L 7.902344 0 L 7.902344 -0.515625 L 1.96875 -0.515625 L 1.96875 -3.011719 L 7.488281 -3.011719 L 7.488281 -3.527344 L 1.96875 -3.527344 L 1.96875 -6.203125 Z M 7.902344 -6.203125 "/></g></g></g><g fill="#000000" fill-opacity="1"><g transform="translate(225.76837, 242.734441)"><g/></g></g><g fill="#000000" fill-opacity="1"><g transform="translate(230.245892, 242.734441)"><g><path d="M 8.160156 -0.671875 L 8.160156 -1.746094 C 8.160156 -2.441406 7.878906 -2.910156 7.242188 -3.167969 C 7.878906 -3.449219 8.160156 -3.953125 8.160156 -4.722656 L 8.160156 -4.992188 C 8.160156 -6.089844 7.445312 -6.714844 5.730469 -6.714844 L 1.386719 -6.714844 L 1.386719 0 L 1.992188 0 L 1.992188 -2.875 L 5.730469 -2.875 C 7.050781 -2.875 7.535156 -2.539062 7.535156 -1.746094 L 7.535156 -0.625 C 7.535156 -0.425781 7.542969 -0.203125 7.578125 0 L 8.214844 0 C 8.183594 -0.203125 8.160156 -0.425781 8.160156 -0.671875 Z M 1.992188 -3.457031 L 1.992188 -6.15625 L 5.730469 -6.15625 C 7.050781 -6.15625 7.554688 -5.789062 7.554688 -4.992188 L 7.554688 -4.722656 C 7.554688 -3.804688 7.050781 -3.457031 5.730469 -3.457031 Z M 1.992188 -3.457031 "/></g></g></g><g fill="#000000" fill-opacity="1"><g transform="translate(239.469594, 242.734441)"><g><path d="M 1.386719 0 L 1.96875 0 L 1.96875 -6.714844 L 1.386719 -6.714844 Z M 1.386719 0 "/></g></g></g><g fill="#000000" fill-opacity="1"><g transform="translate(242.827732, 242.734441)"><g><path d="M 5.539062 -3.425781 L 5.539062 -2.910156 L 8.785156 -2.910156 C 8.628906 -1.242188 7.421875 -0.449219 5.105469 -0.449219 C 2.585938 -0.449219 1.5 -1.367188 1.5 -3.113281 L 1.5 -3.605469 C 1.5 -5.351562 2.640625 -6.269531 5.160156 -6.269531 C 7.410156 -6.269531 8.507812 -5.539062 8.675781 -4.398438 L 9.300781 -4.398438 C 9.144531 -5.84375 7.847656 -6.828125 5.160156 -6.828125 C 2.207031 -6.828125 0.894531 -5.621094 0.894531 -3.605469 L 0.894531 -3.113281 C 0.894531 -1.097656 2.148438 0.113281 5.105469 0.113281 C 7.050781 0.113281 8.226562 -0.425781 8.785156 -1.421875 L 8.898438 0 L 9.371094 0 L 9.371094 -3.425781 Z M 5.539062 -3.425781 "/></g></g></g><g fill="#000000" fill-opacity="1"><g transform="translate(253.159617, 242.734441)"><g><path d="M 8.394531 -6.714844 L 8.394531 -3.558594 L 1.96875 -3.558594 L 1.96875 -6.714844 L 1.386719 -6.714844 L 1.386719 0 L 1.96875 0 L 1.96875 -3.042969 L 8.394531 -3.042969 L 8.394531 0 L 8.976562 0 L 8.976562 -6.714844 Z M 8.394531 -6.714844 "/></g></g></g><g fill="#000000" fill-opacity="1"><g transform="translate(263.525078, 242.734441)"><g><path d="M 7.085938 -6.714844 L -0.0351562 -6.714844 L -0.0351562 -6.179688 L 3.234375 -6.179688 L 3.234375 0 L 3.816406 0 L 3.816406 -6.179688 L 7.085938 -6.179688 Z M 7.085938 -6.714844 "/></g></g></g><g fill="#000000" fill-opacity="1"><g transform="translate(270.565979, 242.734441)"><g/></g></g><g fill="#000000" fill-opacity="1"><g transform="translate(275.043501, 242.734441)"><g><path d="M 10.890625 -6.714844 L 10.140625 -6.714844 L 6.144531 -0.527344 L 2.136719 -6.714844 L 1.386719 -6.714844 L 1.386719 0 L 1.96875 0 L 1.96875 -5.933594 L 5.808594 -0.0117188 L 5.796875 0 L 6.480469 0 L 6.480469 -0.0117188 L 10.308594 -5.933594 L 10.308594 0 L 10.890625 0 Z M 10.890625 -6.714844 "/></g></g></g><g fill="#000000" fill-opacity="1"><g transform="translate(287.323106, 242.734441)"><g><path d="M 5.160156 0.113281 C 8.117188 0.113281 9.425781 -1.140625 9.425781 -3.15625 L 9.425781 -3.648438 C 9.425781 -5.664062 8.117188 -6.828125 5.160156 -6.828125 C 2.207031 -6.828125 0.894531 -5.621094 0.894531 -3.605469 L 0.894531 -3.113281 C 0.894531 -1.097656 2.207031 0.113281 5.160156 0.113281 Z M 5.160156 -0.449219 C 2.640625 -0.449219 1.5 -1.367188 1.5 -3.113281 L 1.5 -3.605469 C 1.5 -5.351562 2.640625 -6.269531 5.160156 -6.269531 C 7.679688 -6.269531 8.820312 -5.351562 8.820312 -3.605469 L 8.820312 -3.113281 C 8.820312 -1.367188 7.679688 -0.449219 5.160156 -0.449219 Z M 5.160156 -0.449219 "/></g></g></g><g fill="#000000" fill-opacity="1"><g transform="translate(297.643789, 242.734441)"><g><path d="M 7.375 -6.714844 L 4.019531 -0.605469 L 0.648438 -6.714844 L -0.0351562 -6.714844 L 3.660156 0 L 4.34375 0 L 8.035156 -6.714844 Z M 7.375 -6.714844 "/></g></g></g><g fill="#000000" fill-opacity="1"><g transform="translate(305.647362, 242.734441)"><g><path d="M 7.902344 -6.203125 L 7.902344 -6.714844 L 1.386719 -6.714844 L 1.386719 0 L 7.902344 0 L 7.902344 -0.515625 L 1.96875 -0.515625 L 1.96875 -3.011719 L 7.488281 -3.011719 L 7.488281 -3.527344 L 1.96875 -3.527344 L 1.96875 -6.203125 Z M 7.902344 -6.203125 "/></g></g></g></svg>