<svg xmlns="http://www.w3.org/2000/svg" xmlns:xlink="http://www.w3.org/1999/xlink" width="500" zoomAndPan="magnify" viewBox="0 0 375 374.999991" height="500" preserveAspectRatio="xMidYMid meet" version="1.0"><defs><g/><clipPath id="8b2fd92462"><path d="M 23.8125 23.8125 L 351.351562 23.8125 L 351.351562 351.351562 L 23.8125 351.351562 Z M 23.8125 23.8125 " clip-rule="nonzero"/></clipPath><clipPath id="ac3e225258"><path d="M 187.5 23.8125 C 97.097656 23.8125 23.8125 97.097656 23.8125 187.5 C 23.8125 277.902344 97.097656 351.1875 187.5 351.1875 C 277.902344 351.1875 351.1875 277.902344 351.1875 187.5 C 351.1875 97.097656 277.902344 23.8125 187.5 23.8125 " clip-rule="nonzero"/></clipPath><clipPath id="d3cfd91d88"><path d="M 50.515625 52.011719 L 324.265625 52.011719 L 324.265625 325.761719 L 50.515625 325.761719 Z M 50.515625 52.011719 " clip-rule="nonzero"/></clipPath><clipPath id="2f7f798cfd"><path d="M 187.390625 52.011719 C 111.796875 52.011719 50.515625 113.292969 50.515625 188.886719 C 50.515625 264.480469 111.796875 325.761719 187.390625 325.761719 C 262.984375 325.761719 324.265625 264.480469 324.265625 188.886719 C 324.265625 113.292969 262.984375 52.011719 187.390625 52.011719 " clip-rule="nonzero"/></clipPath><clipPath id="935c4c78a7"><path d="M 80.222656 80.222656 L 294.722656 80.222656 L 294.722656 294.722656 L 80.222656 294.722656 Z M 80.222656 80.222656 " clip-rule="nonzero"/></clipPath><clipPath id="8901411878"><path d="M 187.472656 80.222656 C 128.242188 80.222656 80.222656 128.242188 80.222656 187.472656 C 80.222656 246.707031 128.242188 294.722656 187.472656 294.722656 C 246.707031 294.722656 294.722656 246.707031 294.722656 187.472656 C 294.722656 128.242188 246.707031 80.222656 187.472656 80.222656 " clip-rule="nonzero"/></clipPath><clipPath id="01d7f3c866"><path d="M 142 99.566406 L 233 99.566406 L 233 264.59375 L 142 264.59375 Z M 142 99.566406 " clip-rule="nonzero"/></clipPath><clipPath id="a7521f2362"><path d="M 188.195312 99.667969 C 184.84375 99.566406 180.804688 101.898438 180.8125 104.917969 C 180.820312 107.105469 182.949219 108.675781 183.4375 109.015625 C 183.09375 109.507812 182.550781 110.285156 181.878906 111.230469 C 178.234375 116.363281 175.453125 119.945312 174.90625 120.664062 C 174.09375 121.734375 162.351562 137.203125 167.527344 148.386719 C 168.253906 149.964844 169.761719 152.410156 173.183594 154.703125 C 170.777344 154.863281 169.277344 157 169.65625 158.722656 C 169.953125 160.050781 171.371094 161.152344 173.101562 161.183594 C 174.113281 165.648438 173.480469 167.289062 172.609375 167.910156 C 171.691406 168.566406 170.492188 168.078125 169.574219 168.976562 C 168.703125 169.832031 168.746094 171.304688 168.917969 172.421875 C 168.316406 172.414062 166.785156 172.984375 165.886719 173.652344 C 162.113281 176.4375 165.066406 178.734375 167.691406 179.390625 C 169.253906 179.785156 170.566406 180.058594 171.050781 179.964844 C 171.027344 180.59375 170.851562 181.839844 171.707031 182.425781 C 173.265625 183.492188 176.851562 182.175781 177.039062 188.414062 C 177.203125 193.828125 175.890625 200.390625 173.347656 209.492188 C 172.539062 212.398438 167.25 216.707031 167.527344 220.566406 C 167.589844 221.453125 166.871094 222.207031 165.722656 223.191406 C 164.871094 223.921875 164.175781 224.359375 163.742188 225.117188 C 163.589844 225.386719 163.359375 225.894531 163.261719 227.457031 C 163.199219 228.402344 163.1875 229.75 163.425781 231.394531 C 162.246094 232.226562 159.65625 234.792969 157.519531 236.152344 C 150.792969 240.417969 148.136719 244.5 148.988281 249.929688 C 149.105469 250.675781 149.398438 251.742188 150.21875 252.964844 C 149.769531 252.921875 147.332031 252.085938 145.050781 254.523438 C 142.671875 257.066406 141.664062 261.246094 143.574219 264.367188 L 231.585938 264.449219 C 233.335938 261.761719 233.324219 258.359375 231.585938 255.917969 C 229.507812 253 225.988281 252.890625 225.597656 252.882812 C 226.898438 250.457031 226.984375 248.566406 226.910156 247.46875 C 226.570312 242.566406 222.003906 239.003906 216.246094 234.511719 C 214.53125 233.171875 213.070312 232.167969 212.144531 231.558594 C 212.304688 230.792969 212.46875 229.726562 212.472656 228.441406 C 212.476562 227.503906 212.484375 225.988281 211.980469 224.667969 C 211.230469 222.6875 208.347656 222.527344 208.371094 220.894531 C 208.429688 217.296875 205.675781 215.597656 204.105469 212.691406 C 198.53125 202.359375 198.554688 190.25 198.695312 186.9375 C 198.859375 183 202.097656 183.570312 203.449219 182.507812 C 204.234375 181.894531 204.667969 180.613281 204.84375 179.964844 C 205.910156 179.71875 207.222656 179.554688 208.042969 179.390625 C 211.359375 178.730469 213.128906 175.453125 209.355469 173.488281 C 208.070312 172.816406 207.058594 172.367188 206.730469 172.339844 C 206.972656 171.371094 207.148438 170.320312 206.402344 169.386719 C 205.542969 168.304688 204.15625 168.695312 203.121094 167.910156 C 202.21875 167.21875 201.472656 165.542969 202.382812 161.101562 C 203.949219 161.066406 205.753906 160.207031 206.074219 158.886719 C 206.476562 157.238281 204.792969 155.164062 202.792969 154.785156 C 203.765625 154.195312 205.386719 153.066406 206.730469 151.175781 C 212.21875 143.480469 207.0625 131.851562 205.992188 129.441406 C 205.066406 127.351562 203.558594 124.542969 201.074219 121.566406 C 196.984375 128.265625 190.441406 138.957031 190 139.53125 L 189.835938 139.695312 C 189.441406 140.003906 188.726562 140.042969 188.195312 139.695312 C 187.679688 139.355469 187.40625 138.703125 187.539062 138.21875 C 187.589844 138.035156 187.683594 137.910156 187.703125 137.890625 C 188.097656 137.378906 192.570312 129.925781 199.351562 118.53125 L 192.132812 109.015625 C 192.589844 108.761719 195.007812 107.355469 195.167969 105.164062 C 195.375 102.261719 191.492188 99.765625 188.195312 99.667969 " clip-rule="nonzero"/></clipPath><clipPath id="7555849207"><path d="M 23.8125 23.8125 L 351.5625 23.8125 L 351.5625 351.5625 L 23.8125 351.5625 Z M 23.8125 23.8125 " clip-rule="nonzero"/></clipPath><clipPath id="e4416a8e5f"><path d="M 187.6875 23.8125 C 97.179688 23.8125 23.8125 97.179688 23.8125 187.6875 C 23.8125 278.191406 97.179688 351.5625 187.6875 351.5625 C 278.191406 351.5625 351.5625 278.191406 351.5625 187.6875 C 351.5625 97.179688 278.191406 23.8125 187.6875 23.8125 " clip-rule="nonzero"/></clipPath></defs><g clip-path="url(#8b2fd92462)"><g clip-path="url(#ac3e225258)"><path fill="#fefefe" d="M 23.8125 23.8125 L 351.351562 23.8125 L 351.351562 351.351562 L 23.8125 351.351562 Z M 23.8125 23.8125 " fill-opacity="1" fill-rule="nonzero"/></g></g><g clip-path="url(#d3cfd91d88)"><g clip-path="url(#2f7f798cfd)"><path stroke-linecap="butt" transform="matrix(0.749422, 0, 0, 0.749422, 50.516032, 52.010615)" fill="none" stroke-linejoin="miter" d="M 182.640094 0.00147282 C 81.770756 0.00147282 -0.000542528 81.772771 -0.000542528 182.642109 C -0.000542528 283.511447 81.770756 365.282746 182.640094 365.282746 C 283.509432 365.282746 365.28073 283.511447 365.28073 182.642109 C 365.28073 81.772771 283.509432 0.00147282 182.640094 0.00147282 " stroke="#000000" stroke-width="6" stroke-opacity="1" stroke-miterlimit="4"/></g></g><path fill="#ffffff" d="M 79.570312 64.8125 C 81.414062 63.175781 83.292969 61.582031 85.210938 60.03125 C 87.128906 58.476562 89.078125 56.96875 91.066406 55.507812 C 93.050781 54.042969 95.070312 52.625 97.121094 51.253906 C 99.171875 49.882812 101.25 48.558594 103.363281 47.28125 C 105.472656 46.007812 107.613281 44.777344 109.777344 43.597656 C 111.945312 42.417969 114.140625 41.289062 116.359375 40.210938 C 118.578125 39.128906 120.820312 38.101562 123.085938 37.125 C 125.351562 36.148438 127.636719 35.222656 129.945312 34.347656 C 132.253906 33.472656 134.582031 32.652344 136.925781 31.886719 C 139.273438 31.117188 141.632812 30.402344 144.011719 29.742188 C 146.390625 29.082031 148.78125 28.476562 151.1875 27.925781 C 153.59375 27.375 156.011719 26.878906 158.441406 26.4375 C 160.871094 25.996094 163.308594 25.609375 165.753906 25.28125 C 168.199219 24.949219 170.652344 24.675781 173.113281 24.457031 C 175.570312 24.234375 178.03125 24.074219 180.5 23.964844 C 182.964844 23.859375 185.433594 23.808594 187.902344 23.8125 C 190.371094 23.820312 192.839844 23.878906 195.304688 24 C 197.769531 24.117188 200.230469 24.289062 202.691406 24.519531 C 205.148438 24.75 207.597656 25.035156 210.042969 25.375 C 212.488281 25.714844 214.925781 26.113281 217.351562 26.566406 C 219.777344 27.015625 222.191406 27.523438 224.597656 28.085938 C 227 28.648438 229.390625 29.265625 231.765625 29.933594 C 234.140625 30.605469 236.5 31.328125 238.839844 32.105469 C 241.183594 32.882812 243.507812 33.714844 245.8125 34.597656 C 248.117188 35.484375 250.398438 36.417969 252.660156 37.40625 C 254.921875 38.394531 257.160156 39.429688 259.375 40.519531 C 261.589844 41.609375 263.777344 42.75 265.9375 43.9375 C 268.101562 45.125 270.234375 46.363281 272.339844 47.648438 C 274.445312 48.933594 276.519531 50.269531 278.5625 51.648438 C 280.609375 53.027344 282.621094 54.453125 284.601562 55.925781 C 286.578125 57.398438 288.523438 58.914062 290.433594 60.476562 C 292.34375 62.035156 294.21875 63.636719 296.054688 65.285156 L 262.1875 102.902344 C 260.921875 101.769531 259.632812 100.667969 258.320312 99.59375 C 257.007812 98.519531 255.667969 97.476562 254.308594 96.464844 C 252.945312 95.453125 251.5625 94.472656 250.15625 93.523438 C 248.75 92.574219 247.320312 91.65625 245.875 90.773438 C 244.425781 89.886719 242.957031 89.035156 241.46875 88.21875 C 239.984375 87.402344 238.476562 86.617188 236.953125 85.867188 C 235.433594 85.117188 233.894531 84.40625 232.335938 83.726562 C 230.78125 83.046875 229.210938 82.402344 227.625 81.792969 C 226.039062 81.1875 224.441406 80.617188 222.832031 80.082031 C 221.21875 79.546875 219.597656 79.046875 217.964844 78.585938 C 216.328125 78.125 214.6875 77.699219 213.03125 77.316406 C 211.378906 76.929688 209.71875 76.578125 208.050781 76.269531 C 206.378906 75.957031 204.703125 75.683594 203.023438 75.449219 C 201.339844 75.214844 199.65625 75.019531 197.964844 74.859375 C 196.273438 74.703125 194.578125 74.582031 192.882812 74.503906 C 191.1875 74.421875 189.488281 74.378906 187.792969 74.375 C 186.09375 74.371094 184.394531 74.40625 182.699219 74.480469 C 181.003906 74.554688 179.308594 74.667969 177.617188 74.816406 C 175.925781 74.96875 174.238281 75.15625 172.558594 75.382812 C 170.875 75.613281 169.199219 75.878906 167.527344 76.179688 C 165.855469 76.484375 164.191406 76.824219 162.539062 77.203125 C 160.882812 77.585938 159.238281 78 157.601562 78.457031 C 155.964844 78.910156 154.339844 79.402344 152.726562 79.929688 C 151.113281 80.457031 149.511719 81.019531 147.925781 81.621094 C 146.339844 82.222656 144.765625 82.859375 143.207031 83.53125 C 141.648438 84.203125 140.105469 84.910156 138.578125 85.65625 C 137.054688 86.398438 135.542969 87.175781 134.054688 87.984375 C 132.5625 88.796875 131.089844 89.640625 129.640625 90.519531 C 128.1875 91.398438 126.757812 92.308594 125.34375 93.253906 C 123.933594 94.195312 122.546875 95.171875 121.179688 96.175781 C 119.816406 97.183594 118.472656 98.21875 117.15625 99.289062 C 115.835938 100.355469 114.542969 101.453125 113.273438 102.578125 Z M 79.570312 64.8125 " fill-opacity="1" fill-rule="nonzero"/><g fill="#000000" fill-opacity="1"><g transform="translate(105.443061, 98.183197)"><g><path d="M 4.3125 -2.96875 L 17.039062 -11.730469 C 22.566406 -15.539062 24.386719 -19.816406 21.660156 -23.777344 L 21.203125 -24.441406 C 19.144531 -27.429688 16.613281 -26.867188 15.074219 -26.421875 C 16.027344 -27.640625 16.828125 -29.679688 14.816406 -32.601562 L 14.480469 -33.085938 C 12.0625 -36.597656 8.027344 -36.28125 3.71875 -33.3125 L -10.050781 -23.832031 Z M -1.359375 -17.3125 L -5.285156 -23.011719 L 5.632812 -30.53125 C 8.832031 -32.734375 10.554688 -32.535156 11.5625 -31.074219 L 11.898438 -30.589844 C 13.355469 -28.46875 12.652344 -26.957031 9.558594 -24.828125 Z M 5.246094 -7.714844 L 0.675781 -14.355469 L 10.550781 -21.152344 C 14.617188 -23.953125 16.726562 -24.6875 18.285156 -22.429688 L 18.738281 -21.769531 C 19.886719 -20.097656 19.433594 -17.480469 15.125 -14.511719 Z M 5.246094 -7.714844 "/></g></g></g><g fill="#000000" fill-opacity="1"><g transform="translate(131.855603, 80.780068)"><g><path d="M 4.769531 -2.15625 L 7.921875 -3.585938 L -2.515625 -26.664062 L -5.671875 -25.234375 Z M 4.769531 -2.15625 "/></g></g></g><g fill="#000000" fill-opacity="1"><g transform="translate(141.117577, 75.130841)"><g><path d="M 24.585938 -23.953125 L 27.949219 -24.78125 C 26.558594 -30.4375 20.796875 -31.585938 11.984375 -29.421875 C 1.53125 -26.851562 -2.269531 -23.570312 -1.273438 -19.511719 L -1.121094 -18.894531 C 0.117188 -13.851562 4.449219 -13.742188 14.539062 -15.136719 C 25.070312 -16.683594 26.316406 -15.511719 26.667969 -14.074219 L 26.808594 -13.5 C 27.523438 -10.589844 22.335938 -8.53125 16.554688 -7.113281 C 9.214844 -5.308594 5.492188 -6.304688 4.667969 -9.667969 L 1.304688 -8.839844 C 2.605469 -3.554688 7.726562 -1.464844 17.359375 -3.832031 C 27.648438 -6.359375 31.410156 -9.632812 30.253906 -14.347656 L 30.109375 -14.921875 C 28.851562 -20.046875 23.925781 -19.921875 13.976562 -18.476562 C 3.949219 -17.011719 2.703125 -18.183594 2.320312 -19.742188 L 2.167969 -20.355469 C 1.644531 -22.488281 6.027344 -24.476562 12.789062 -26.140625 C 19.308594 -27.742188 23.769531 -27.273438 24.585938 -23.953125 Z M 24.585938 -23.953125 "/></g></g></g><g fill="#000000" fill-opacity="1"><g transform="translate(171.655642, 66.648982)"><g><path d="M 32.632812 -24.066406 L 32.191406 -12.804688 L 9.242188 -13.707031 L 9.683594 -24.96875 L 6.226562 -25.105469 L 5.230469 0.207031 L 8.691406 0.339844 L 9.125 -10.753906 L 32.074219 -9.851562 L 31.636719 1.242188 L 35.097656 1.378906 L 36.09375 -23.929688 Z M 32.632812 -24.066406 "/></g></g></g><g fill="#000000" fill-opacity="1"><g transform="translate(207.021221, 67.310241)"><g><path d="M 18.851562 6.972656 C 30.578125 11.035156 36.511719 7.058594 38.683594 0.792969 L 39.289062 -0.960938 C 41.527344 -7.425781 38.929688 -13.863281 27.441406 -17.839844 C 15.832031 -21.859375 9.863281 -18.164062 7.640625 -11.742188 L 7.03125 -9.984375 C 4.835938 -3.640625 7.242188 2.953125 18.851562 6.972656 Z M 19.957031 3.78125 C 11.179688 0.742188 8.640625 -3.796875 10.382812 -8.824219 L 10.988281 -10.582031 C 12.757812 -15.6875 17.558594 -17.6875 26.335938 -14.648438 C 34.953125 -11.664062 37.582031 -6.867188 35.800781 -1.722656 L 35.191406 0.03125 C 33.492188 4.941406 28.890625 6.875 19.957031 3.78125 Z M 19.957031 3.78125 "/></g></g></g><g fill="#000000" fill-opacity="1"><g transform="translate(240.619649, 78.686698)"><g><path d="M 32.289062 -8.464844 L 18.714844 -17.855469 L 4.304688 2.976562 L 7.152344 4.945312 L 12.050781 -2.136719 L 22.78125 5.285156 C 28.648438 9.34375 32.402344 8.960938 35.621094 4.308594 L 36.316406 3.304688 C 38.789062 -0.273438 38.851562 -3.925781 32.289062 -8.464844 Z M 32.703125 2.292969 C 30.734375 5.140625 28.660156 5.246094 24.355469 2.265625 L 13.972656 -4.914062 L 19.640625 -13.109375 L 30.023438 -5.925781 C 34.152344 -3.070312 35.105469 -1.179688 33.398438 1.285156 Z M 32.703125 2.292969 "/></g></g></g><g clip-path="url(#935c4c78a7)"><g clip-path="url(#8901411878)"><path stroke-linecap="butt" transform="matrix(0.749836, 0, 0, 0.749836, 80.224504, 80.2245)" fill="none" stroke-linejoin="miter" d="M 143.028797 -0.00245825 C 64.037574 -0.00245825 -0.00246425 64.03758 -0.00246425 143.028803 C -0.00246425 222.025235 64.037574 286.060064 143.028797 286.060064 C 222.025229 286.060064 286.060058 222.025235 286.060058 143.028803 C 286.060058 64.03758 222.025229 -0.00245825 143.028797 -0.00245825 " stroke="#000000" stroke-width="12" stroke-opacity="1" stroke-miterlimit="4"/></g></g><path fill="#ffffff" d="M 332.773438 191.878906 C 332.699219 194.214844 332.570312 196.546875 332.386719 198.875 C 332.203125 201.207031 331.964844 203.527344 331.667969 205.847656 C 331.371094 208.164062 331.019531 210.472656 330.613281 212.773438 C 330.207031 215.074219 329.746094 217.363281 329.230469 219.644531 C 328.710938 221.921875 328.140625 224.1875 327.515625 226.4375 C 326.890625 228.6875 326.210938 230.921875 325.476562 233.140625 C 324.746094 235.359375 323.960938 237.558594 323.121094 239.738281 C 322.28125 241.917969 321.390625 244.078125 320.449219 246.214844 C 319.507812 248.351562 318.515625 250.464844 317.472656 252.554688 C 316.425781 254.644531 315.332031 256.707031 314.191406 258.746094 C 313.046875 260.78125 311.855469 262.789062 310.617188 264.769531 C 309.378906 266.75 308.09375 268.699219 306.757812 270.613281 C 305.425781 272.53125 304.046875 274.417969 302.625 276.265625 C 301.199219 278.117188 299.734375 279.933594 298.222656 281.714844 C 296.710938 283.496094 295.160156 285.238281 293.566406 286.941406 C 291.972656 288.648438 290.335938 290.3125 288.660156 291.941406 C 286.988281 293.566406 285.273438 295.152344 283.523438 296.695312 C 281.773438 298.238281 279.988281 299.742188 278.164062 301.199219 C 276.339844 302.65625 274.484375 304.070312 272.59375 305.4375 C 270.703125 306.804688 268.78125 308.128906 266.828125 309.402344 C 264.871094 310.679688 262.890625 311.90625 260.875 313.085938 C 258.863281 314.265625 256.824219 315.398438 254.753906 316.480469 C 252.6875 317.5625 250.59375 318.59375 248.476562 319.574219 C 246.359375 320.554688 244.222656 321.484375 242.058594 322.359375 C 239.898438 323.238281 237.71875 324.0625 235.515625 324.835938 C 233.316406 325.609375 231.097656 326.328125 228.859375 326.992188 C 226.625 327.660156 224.375 328.269531 222.109375 328.828125 C 219.84375 329.382812 217.566406 329.886719 215.277344 330.332031 C 212.988281 330.78125 210.6875 331.171875 208.378906 331.507812 C 206.074219 331.84375 203.757812 332.125 201.4375 332.351562 C 199.113281 332.574219 196.789062 332.742188 194.460938 332.855469 C 192.128906 332.96875 189.796875 333.023438 187.464844 333.023438 C 185.132812 333.027344 182.800781 332.96875 180.472656 332.855469 C 178.144531 332.746094 175.816406 332.578125 173.496094 332.351562 C 171.171875 332.128906 168.859375 331.847656 166.550781 331.511719 C 164.242188 331.175781 161.945312 330.785156 159.652344 330.339844 C 157.363281 329.890625 155.085938 329.390625 152.820312 328.832031 C 150.558594 328.277344 148.304688 327.667969 146.070312 327 C 143.835938 326.335938 141.617188 325.617188 139.414062 324.847656 C 137.210938 324.074219 135.03125 323.25 132.871094 322.371094 C 130.707031 321.496094 128.566406 320.566406 126.449219 319.585938 C 124.332031 318.605469 122.242188 317.574219 120.171875 316.492188 C 118.105469 315.414062 116.066406 314.28125 114.050781 313.101562 C 112.039062 311.921875 110.054688 310.695312 108.101562 309.421875 C 106.144531 308.144531 104.222656 306.824219 102.332031 305.457031 C 100.441406 304.085938 98.585938 302.675781 96.761719 301.21875 C 94.9375 299.757812 93.152344 298.257812 91.398438 296.714844 C 89.648438 295.171875 87.9375 293.585938 86.261719 291.960938 C 84.585938 290.335938 82.953125 288.667969 81.355469 286.964844 C 79.761719 285.257812 78.210938 283.515625 76.699219 281.738281 C 75.1875 279.957031 73.71875 278.140625 72.296875 276.289062 C 70.871094 274.441406 69.492188 272.554688 68.160156 270.640625 C 66.828125 268.722656 65.539062 266.773438 64.300781 264.792969 C 63.058594 262.816406 61.867188 260.808594 60.726562 258.769531 C 59.582031 256.734375 58.488281 254.671875 57.445312 252.582031 C 56.398438 250.492188 55.40625 248.378906 54.464844 246.242188 C 53.519531 244.105469 52.628906 241.945312 51.792969 239.765625 C 50.953125 237.585938 50.167969 235.386719 49.433594 233.167969 C 48.699219 230.949219 48.019531 228.714844 47.394531 226.464844 C 46.769531 224.214844 46.195312 221.949219 45.679688 219.671875 C 45.164062 217.394531 44.699219 215.105469 44.292969 212.804688 C 43.886719 210.503906 43.535156 208.191406 43.238281 205.875 C 42.941406 203.558594 42.703125 201.234375 42.515625 198.90625 C 42.332031 196.574219 42.203125 194.242188 42.132812 191.910156 L 72.054688 190.976562 C 72.109375 192.832031 72.210938 194.683594 72.359375 196.53125 C 72.503906 198.382812 72.695312 200.226562 72.933594 202.066406 C 73.167969 203.90625 73.445312 205.742188 73.769531 207.566406 C 74.09375 209.394531 74.460938 211.214844 74.871094 213.023438 C 75.28125 214.832031 75.734375 216.628906 76.230469 218.417969 C 76.730469 220.203125 77.269531 221.980469 77.851562 223.742188 C 78.433594 225.5 79.058594 227.25 79.722656 228.980469 C 80.390625 230.710938 81.097656 232.425781 81.847656 234.121094 C 82.59375 235.820312 83.382812 237.496094 84.214844 239.15625 C 85.042969 240.816406 85.910156 242.453125 86.820312 244.070312 C 87.726562 245.6875 88.671875 247.28125 89.65625 248.855469 C 90.640625 250.425781 91.664062 251.972656 92.722656 253.496094 C 93.78125 255.019531 94.875 256.515625 96.007812 257.984375 C 97.136719 259.453125 98.300781 260.894531 99.503906 262.308594 C 100.703125 263.722656 101.933594 265.105469 103.203125 266.460938 C 104.46875 267.8125 105.765625 269.136719 107.097656 270.425781 C 108.425781 271.71875 109.785156 272.976562 111.175781 274.203125 C 112.566406 275.429688 113.988281 276.621094 115.433594 277.777344 C 116.882812 278.933594 118.355469 280.058594 119.859375 281.144531 C 121.359375 282.230469 122.886719 283.277344 124.4375 284.292969 C 125.992188 285.304688 127.566406 286.277344 129.164062 287.214844 C 130.761719 288.152344 132.382812 289.050781 134.027344 289.910156 C 135.667969 290.765625 137.328125 291.585938 139.011719 292.363281 C 140.691406 293.144531 142.390625 293.878906 144.109375 294.578125 C 145.824219 295.273438 147.558594 295.929688 149.304688 296.542969 C 151.054688 297.152344 152.816406 297.726562 154.589844 298.253906 C 156.367188 298.78125 158.152344 299.265625 159.953125 299.707031 C 161.75 300.148438 163.558594 300.546875 165.378906 300.902344 C 167.195312 301.257812 169.019531 301.570312 170.855469 301.835938 C 172.6875 302.101562 174.523438 302.324219 176.367188 302.503906 C 178.210938 302.679688 180.058594 302.8125 181.910156 302.902344 C 183.757812 302.992188 185.609375 303.035156 187.460938 303.035156 C 189.316406 303.035156 191.167969 302.992188 193.015625 302.902344 C 194.867188 302.8125 196.714844 302.679688 198.554688 302.5 C 200.398438 302.320312 202.238281 302.097656 204.070312 301.832031 C 205.902344 301.566406 207.730469 301.253906 209.546875 300.898438 C 211.367188 300.542969 213.175781 300.144531 214.972656 299.703125 C 216.769531 299.261719 218.558594 298.773438 220.335938 298.246094 C 222.109375 297.71875 223.871094 297.148438 225.621094 296.535156 C 227.367188 295.921875 229.097656 295.265625 230.816406 294.566406 C 232.53125 293.871094 234.230469 293.132812 235.914062 292.355469 C 237.59375 291.574219 239.253906 290.757812 240.898438 289.898438 C 242.539062 289.039062 244.160156 288.140625 245.757812 287.203125 C 247.355469 286.265625 248.929688 285.292969 250.484375 284.277344 C 252.035156 283.265625 253.5625 282.214844 255.0625 281.128906 C 256.5625 280.042969 258.039062 278.921875 259.484375 277.761719 C 260.933594 276.605469 262.351562 275.414062 263.742188 274.1875 C 265.132812 272.960938 266.492188 271.703125 267.824219 270.410156 C 269.152344 269.121094 270.449219 267.796875 271.714844 266.441406 C 272.980469 265.085938 274.214844 263.703125 275.414062 262.289062 C 276.613281 260.875 277.78125 259.433594 278.910156 257.964844 C 280.039062 256.496094 281.136719 255 282.195312 253.476562 C 283.25 251.953125 284.273438 250.40625 285.257812 248.835938 C 286.242188 247.261719 287.1875 245.667969 288.09375 244.050781 C 289.003906 242.433594 289.871094 240.796875 290.699219 239.136719 C 291.527344 237.476562 292.316406 235.796875 293.066406 234.101562 C 293.8125 232.402344 294.519531 230.6875 295.1875 228.957031 C 295.851562 227.226562 296.476562 225.480469 297.058594 223.71875 C 297.640625 221.957031 298.179688 220.183594 298.675781 218.394531 C 299.171875 216.605469 299.625 214.808594 300.035156 213 C 300.445312 211.191406 300.8125 209.371094 301.136719 207.546875 C 301.460938 205.71875 301.738281 203.882812 301.972656 202.042969 C 302.207031 200.203125 302.398438 198.359375 302.546875 196.507812 C 302.691406 194.660156 302.792969 192.808594 302.851562 190.953125 Z M 332.773438 191.878906 " fill-opacity="1" fill-rule="nonzero"/><g fill="#000000" fill-opacity="1"><g transform="translate(47.104073, 192.558535)"><g><path d="M 12.824219 18.382812 L 13.222656 18.335938 C 15.800781 18.03125 16.992188 16.234375 16.605469 12.9375 L 15.230469 1.316406 L 0.363281 3.074219 L 0.617188 5.226562 L 6.613281 4.519531 L 7.660156 13.367188 C 7.972656 16.015625 6.8125 16.605469 5.398438 16.773438 L 3.417969 17.007812 C 2.972656 17.0625 2.476562 17.144531 2.042969 17.269531 L 2.3125 19.574219 C 2.75 19.449219 3.242188 19.339844 3.785156 19.277344 L 5.792969 19.039062 C 7.355469 18.855469 8.492188 18.066406 9.011719 16.523438 C 9.652344 17.902344 10.792969 18.625 12.824219 18.382812 Z M 12.578125 16.300781 C 11.066406 16.480469 10.078125 15.769531 9.839844 13.738281 L 8.71875 4.269531 L 13.503906 3.707031 L 14.621094 13.171875 C 14.882812 15.375 14.117188 16.121094 12.976562 16.253906 Z M 12.578125 16.300781 "/></g></g></g><g fill="#000000" fill-opacity="1"><g transform="translate(50.052543, 215.762668)"><g><path d="M 17.675781 14.058594 L 19.429688 13.558594 L 15.246094 -1.125 L 0.847656 2.976562 L 5.03125 17.660156 L 6.78125 17.164062 L 3.160156 4.445312 L 7.550781 3.195312 L 10.820312 14.664062 L 12.570312 14.164062 L 9.304688 2.695312 L 14.054688 1.339844 Z M 17.675781 14.058594 "/></g></g></g><g fill="#000000" fill-opacity="1"><g transform="translate(56.032048, 236.250107)"><g><path d="M 6.855469 15.082031 L 7.828125 17.21875 L 18.035156 3.558594 L 18.058594 3.550781 L 17.078125 1.390625 L 17.066406 1.425781 L 0.0507812 0.113281 L 1.023438 2.25 L 4.230469 2.488281 L 8.78125 12.507812 Z M 6.5 2.664062 L 15.621094 3.371094 L 10.144531 10.683594 Z M 6.5 2.664062 "/></g></g></g><g fill="#000000" fill-opacity="1"><g transform="translate(64.599999, 254.809367)"><g><path d="M 15.359375 -3.785156 L 14.253906 -5.507812 L 1.660156 2.582031 L 9.503906 14.800781 L 11.101562 13.777344 L 4.359375 3.28125 Z M 15.359375 -3.785156 "/></g></g></g><g fill="#000000" fill-opacity="1"><g transform="translate(75.455294, 271.172254)"><g/></g></g><g fill="#000000" fill-opacity="1"><g transform="translate(82.27087, 279.941735)"><g><path d="M 22.316406 3.476562 L 23.59375 2.179688 L 12.695312 -8.519531 L 2.207031 2.167969 L 13.105469 12.863281 L 14.382812 11.5625 L 4.945312 2.300781 L 8.144531 -0.957031 L 16.65625 7.394531 L 17.929688 6.09375 L 9.417969 -2.257812 L 12.878906 -5.785156 Z M 22.316406 3.476562 "/></g></g></g><g fill="#000000" fill-opacity="1"><g transform="translate(97.617296, 294.92162)"><g><path d="M 20.214844 1.742188 L 21.882812 2.925781 C 23.875 0.117188 22.164062 -2.902344 17.789062 -6.007812 C 12.601562 -9.691406 9.664062 -10.121094 8.234375 -8.109375 L 8.015625 -7.804688 C 6.242188 -5.300781 7.863281 -3.320312 12.386719 0.652344 C 17.148438 4.765625 17.105469 5.777344 16.597656 6.488281 L 16.398438 6.773438 C 15.371094 8.21875 12.445312 6.691406 9.578125 4.65625 C 5.933594 2.070312 4.941406 0.0195312 6.125 -1.648438 L 4.457031 -2.832031 C 2.59375 -0.207031 3.640625 2.890625 8.421875 6.285156 C 13.527344 9.910156 16.445312 10.328125 18.105469 7.988281 L 18.308594 7.703125 C 20.113281 5.160156 18.15625 3.003906 13.664062 -0.886719 C 9.132812 -4.808594 9.175781 -5.816406 9.726562 -6.589844 L 9.941406 -6.894531 C 10.695312 -7.953125 13.277344 -6.761719 16.632812 -4.378906 C 19.867188 -2.082031 21.382812 0.09375 20.214844 1.742188 Z M 20.214844 1.742188 "/></g></g></g><g fill="#000000" fill-opacity="1"><g transform="translate(116.489349, 307.962954)"><g><path d="M 21.539062 -5.816406 L 6.738281 -13.371094 L 5.851562 -11.636719 L 12.34375 -8.324219 L 6.421875 3.277344 L 8.246094 4.207031 L 14.164062 -7.394531 L 20.65625 -4.082031 Z M 21.539062 -5.816406 "/></g></g></g><g fill="#000000" fill-opacity="1"><g transform="translate(132.320258, 316.039567)"><g><path d="M 15.640625 5.460938 L 17.855469 6.230469 L 15.03125 -10.582031 L 15.039062 -10.609375 L 12.800781 -11.386719 L 12.816406 -11.355469 L 0.117188 0.0429688 L 2.332031 0.8125 L 4.722656 -1.339844 L 15.109375 2.289062 Z M 6.417969 -2.859375 L 13.226562 -8.96875 L 14.730469 0.0429688 Z M 6.417969 -2.859375 "/></g></g></g><g fill="#000000" fill-opacity="1"><g transform="translate(151.596469, 322.577706)"><g><path d="M 19.183594 -11.390625 L 2.898438 -14.6875 L 2.511719 -12.78125 L 9.652344 -11.335938 L 7.066406 1.429688 L 9.074219 1.835938 L 11.660156 -10.929688 L 18.800781 -9.480469 Z M 19.183594 -11.390625 "/></g></g></g><g fill="#000000" fill-opacity="1"><g transform="translate(169.043878, 326.137563)"><g><path d="M 19.128906 -12.011719 L 19.238281 -13.832031 L 3.996094 -14.757812 L 3.089844 0.1875 L 18.332031 1.113281 L 18.441406 -0.707031 L 5.242188 -1.507812 L 5.515625 -6.066406 L 17.421875 -5.34375 L 17.53125 -7.160156 L 5.628906 -7.882812 L 5.925781 -12.8125 Z M 19.128906 -12.011719 "/></g></g></g><g fill="#000000" fill-opacity="1"><g transform="translate(190.003283, 327.06294)"><g/></g></g><g fill="#000000" fill-opacity="1"><g transform="translate(201.174684, 326.738691)"><g><path d="M 15.4375 -13.160156 L 17.453125 -13.515625 C 16.855469 -16.910156 13.503906 -17.8125 8.222656 -16.878906 C 1.957031 -15.773438 -0.414062 -13.988281 0.015625 -11.554688 L 0.078125 -11.1875 C 0.613281 -8.164062 3.160156 -7.929688 9.167969 -8.355469 C 15.4375 -8.855469 16.128906 -8.113281 16.277344 -7.253906 L 16.339844 -6.910156 C 16.648438 -5.164062 13.507812 -4.15625 10.042969 -3.542969 C 5.644531 -2.769531 3.488281 -3.503906 3.132812 -5.519531 L 1.117188 -5.164062 C 1.675781 -1.992188 4.613281 -0.558594 10.386719 -1.578125 C 16.554688 -2.667969 18.902344 -4.449219 18.402344 -7.273438 L 18.34375 -7.617188 C 17.800781 -10.691406 14.890625 -10.808594 8.96875 -10.347656 C 2.996094 -9.878906 2.308594 -10.617188 2.144531 -11.550781 L 2.078125 -11.921875 C 1.851562 -13.199219 4.515625 -14.199219 8.566406 -14.914062 C 12.476562 -15.605469 15.089844 -15.152344 15.4375 -13.160156 Z M 15.4375 -13.160156 "/></g></g></g><g fill="#000000" fill-opacity="1"><g transform="translate(223.714514, 322.471545)"><g><path d="M 10.992188 -19.417969 L -4.78125 -14.1875 L -4.167969 -12.339844 L 2.746094 -14.632812 L 6.84375 -2.269531 L 8.785156 -2.914062 L 4.6875 -15.277344 L 11.605469 -17.570312 Z M 10.992188 -19.417969 "/></g></g></g><g fill="#000000" fill-opacity="1"><g transform="translate(240.722923, 316.928132)"><g><path d="M 12.886719 -18.339844 L 12.707031 -18.699219 C 11.539062 -21.015625 9.441406 -21.519531 6.476562 -20.027344 L -3.972656 -14.761719 L 2.761719 -1.390625 L 4.703125 -2.371094 L 1.984375 -7.761719 L 9.9375 -11.769531 C 12.324219 -12.972656 13.273438 -12.082031 13.914062 -10.8125 L 14.8125 -9.03125 C 15.015625 -8.628906 15.261719 -8.195312 15.53125 -7.828125 L 17.601562 -8.871094 C 17.332031 -9.238281 17.066406 -9.660156 16.816406 -10.152344 L 15.90625 -11.957031 C 15.199219 -13.359375 14.070312 -14.160156 12.441406 -14.121094 C 13.519531 -15.195312 13.808594 -16.511719 12.886719 -18.339844 Z M 11.015625 -17.398438 C 11.699219 -16.039062 11.367188 -14.867188 9.542969 -13.945312 L 1.03125 -9.65625 L -1.136719 -13.957031 L 7.375 -18.246094 C 9.359375 -19.246094 10.320312 -18.777344 10.835938 -17.753906 Z M 11.015625 -17.398438 "/></g></g></g><g fill="#000000" fill-opacity="1"><g transform="translate(261.476799, 306.212349)"><g><path d="M 13.453125 -9.671875 L 15.355469 -11.042969 L -0.0351562 -18.382812 L -0.0507812 -18.402344 L -1.972656 -17.019531 L -1.9375 -17.015625 L 0.101562 -0.0742188 L 2.003906 -1.441406 L 1.617188 -4.632812 L 10.550781 -11.058594 Z M 1.339844 -6.894531 L 0.25 -15.976562 L 8.492188 -12.039062 Z M 1.339844 -6.894531 "/></g></g></g><g fill="#000000" fill-opacity="1"><g transform="translate(277.899592, 294.18807)"><g><path d="M 1.691406 -22.246094 L -10.359375 -10.804688 L -9.019531 -9.394531 L -3.738281 -14.410156 L 5.230469 -4.964844 L 6.714844 -6.375 L -2.253906 -15.820312 L 3.03125 -20.835938 Z M 1.691406 -22.246094 "/></g></g></g><g fill="#000000" fill-opacity="1"><g transform="translate(290.831047, 281.945467)"><g><path d="M 1.148438 -22.558594 L -0.277344 -23.691406 L -9.789062 -11.742188 L 1.925781 -2.421875 L 11.4375 -14.367188 L 10.011719 -15.503906 L 1.777344 -5.15625 L -1.796875 -8 L 5.628906 -17.332031 L 4.203125 -18.464844 L -3.222656 -9.132812 L -7.089844 -12.210938 Z M 1.148438 -22.558594 "/></g></g></g><g fill="#000000" fill-opacity="1"><g transform="translate(304.260601, 265.108228)"><g><path d="M -0.808594 -14.875 L 0.785156 -13.996094 L 4.03125 -19.867188 C 6.382812 -17.828125 6.308594 -15.015625 4.074219 -10.976562 C 1.40625 -6.152344 -1.339844 -5.417969 -4.265625 -7.035156 L -4.917969 -7.398438 C -7.84375 -9.015625 -8.523438 -12.015625 -5.867188 -16.816406 C -3.414062 -21.25 -0.929688 -21.929688 0.644531 -21.371094 L 1.71875 -23.316406 C -0.671875 -24.410156 -4.328125 -23.722656 -7.613281 -17.785156 C -11.128906 -11.429688 -9.578125 -7.582031 -5.933594 -5.5625 L -5.277344 -5.199219 C -1.632812 -3.183594 2.308594 -3.65625 5.824219 -10.011719 C 7.898438 -13.765625 8.199219 -16.421875 7.089844 -18.433594 L 7.15625 -18.398438 L 9.625 -17.402344 L 10.421875 -18.84375 L 3.5 -22.671875 Z M -0.808594 -14.875 "/></g></g></g><g fill="#000000" fill-opacity="1"><g transform="translate(315.804477, 243.111231)"><g><path d="M 1.15625 -2.871094 L 1.921875 -4.769531 L -11.964844 -10.363281 L -12.730469 -8.464844 Z M 1.15625 -2.871094 "/></g></g></g><g fill="#000000" fill-opacity="1"><g transform="translate(319.515977, 234.58797)"><g><path d="M -7.664062 -21.246094 L -9.417969 -21.742188 L -13.566406 -7.046875 L 0.839844 -2.976562 L 4.992188 -17.671875 L 3.238281 -18.167969 L -0.355469 -5.441406 L -4.75 -6.683594 L -1.507812 -18.160156 L -3.261719 -18.65625 L -6.503906 -7.175781 L -11.257812 -8.519531 Z M -7.664062 -21.246094 "/></g></g></g><g fill="#000000" fill-opacity="1"><g transform="translate(325.287029, 213.933214)"><g><path d="M -8.175781 -18.566406 L -7.941406 -20.597656 C -11.359375 -21 -13.1875 -18.046875 -13.8125 -12.71875 C -14.550781 -6.402344 -13.519531 -3.617188 -11.066406 -3.328125 L -10.695312 -3.285156 C -7.644531 -2.929688 -6.691406 -5.304688 -5.375 -11.179688 C -4.050781 -17.332031 -3.144531 -17.777344 -2.277344 -17.675781 L -1.929688 -17.636719 C -0.171875 -17.429688 -0.105469 -14.128906 -0.515625 -10.636719 C -1.03125 -6.199219 -2.355469 -4.34375 -4.386719 -4.582031 L -4.625 -2.550781 C -1.429688 -2.175781 0.789062 -4.582031 1.46875 -10.40625 C 2.195312 -16.625 1.164062 -19.382812 -1.6875 -19.71875 L -2.035156 -19.757812 C -5.132812 -20.121094 -6.082031 -17.367188 -7.339844 -11.5625 C -8.601562 -5.703125 -9.507812 -5.257812 -10.449219 -5.367188 L -10.820312 -5.410156 C -12.109375 -5.5625 -12.304688 -8.398438 -11.828125 -12.488281 C -11.367188 -16.429688 -10.183594 -18.800781 -8.175781 -18.566406 Z M -8.175781 -18.566406 "/></g></g></g><g clip-path="url(#01d7f3c866)"><g clip-path="url(#a7521f2362)"><path fill="#000000" d="M 141.664062 99.566406 L 233.363281 99.566406 L 233.363281 264.429688 L 141.664062 264.429688 Z M 141.664062 99.566406 " fill-opacity="1" fill-rule="nonzero"/></g></g><g clip-path="url(#7555849207)"><g clip-path="url(#e4416a8e5f)"><path stroke-linecap="butt" transform="matrix(0.750859, 0, 0, 0.750859, 23.811569, 23.811565)" fill="none" stroke-linejoin="miter" d="M 218.251234 0.00124578 C 97.712228 0.00124578 0.00123978 97.712234 0.00123978 218.25124 C 0.00123978 338.785043 97.712228 436.501234 218.251234 436.501234 C 338.785037 436.501234 436.501228 338.785043 436.501228 218.25124 C 436.501228 97.712234 338.785037 0.00124578 218.251234 0.00124578 " stroke="#010101" stroke-width="12" stroke-opacity="1" stroke-miterlimit="4"/></g></g></svg>